<mxfile host="app.diagrams.net" agent="Mozilla/5.0 (Macintosh; Intel Mac OS X 10_15_7) AppleWebKit/537.36 (KHTML, like Gecko) Chrome/140.0.0.0 Safari/537.36" version="28.2.0">
  <diagram name="Page-1" id="YDHhIk46RyTXh9LSPzu3">
    <mxGraphModel dx="976" dy="565" grid="1" gridSize="10" guides="1" tooltips="1" connect="1" arrows="1" fold="1" page="1" pageScale="1" pageWidth="850" pageHeight="1100" math="0" shadow="0">
      <root>
        <mxCell id="0" />
        <mxCell id="1" parent="0" />
        <mxCell id="s42ONqCnvufCmdt6-LnY-12" style="edgeStyle=orthogonalEdgeStyle;rounded=0;orthogonalLoop=1;jettySize=auto;html=1;exitX=0;exitY=0.5;exitDx=0;exitDy=0;entryX=0.5;entryY=0;entryDx=0;entryDy=0;" parent="1" source="s42ONqCnvufCmdt6-LnY-1" target="s42ONqCnvufCmdt6-LnY-2" edge="1">
          <mxGeometry relative="1" as="geometry" />
        </mxCell>
        <mxCell id="s42ONqCnvufCmdt6-LnY-13" style="edgeStyle=orthogonalEdgeStyle;rounded=0;orthogonalLoop=1;jettySize=auto;html=1;exitX=1;exitY=0.5;exitDx=0;exitDy=0;" parent="1" source="s42ONqCnvufCmdt6-LnY-1" target="s42ONqCnvufCmdt6-LnY-4" edge="1">
          <mxGeometry relative="1" as="geometry" />
        </mxCell>
        <mxCell id="s42ONqCnvufCmdt6-LnY-14" style="edgeStyle=orthogonalEdgeStyle;rounded=0;orthogonalLoop=1;jettySize=auto;html=1;exitX=0.5;exitY=1;exitDx=0;exitDy=0;" parent="1" source="s42ONqCnvufCmdt6-LnY-1" target="s42ONqCnvufCmdt6-LnY-3" edge="1">
          <mxGeometry relative="1" as="geometry" />
        </mxCell>
        <mxCell id="s42ONqCnvufCmdt6-LnY-1" value="Post" style="rounded=1;whiteSpace=wrap;html=1;" parent="1" vertex="1">
          <mxGeometry x="200" y="80" width="80" height="40" as="geometry" />
        </mxCell>
        <mxCell id="s42ONqCnvufCmdt6-LnY-5" value="" style="swimlane;startSize=0;" parent="1" vertex="1">
          <mxGeometry x="40" y="160" width="400" height="280" as="geometry" />
        </mxCell>
        <mxCell id="s42ONqCnvufCmdt6-LnY-19" style="edgeStyle=orthogonalEdgeStyle;rounded=0;orthogonalLoop=1;jettySize=auto;html=1;exitX=0.5;exitY=1;exitDx=0;exitDy=0;entryX=0;entryY=0.5;entryDx=0;entryDy=0;" parent="s42ONqCnvufCmdt6-LnY-5" source="s42ONqCnvufCmdt6-LnY-6" target="s42ONqCnvufCmdt6-LnY-10" edge="1">
          <mxGeometry relative="1" as="geometry" />
        </mxCell>
        <mxCell id="s42ONqCnvufCmdt6-LnY-6" value="Model1" style="rounded=1;whiteSpace=wrap;html=1;" parent="s42ONqCnvufCmdt6-LnY-5" vertex="1">
          <mxGeometry x="40" y="120" width="80" height="40" as="geometry" />
        </mxCell>
        <mxCell id="s42ONqCnvufCmdt6-LnY-18" style="edgeStyle=orthogonalEdgeStyle;rounded=0;orthogonalLoop=1;jettySize=auto;html=1;exitX=0.5;exitY=1;exitDx=0;exitDy=0;entryX=0.5;entryY=0;entryDx=0;entryDy=0;" parent="s42ONqCnvufCmdt6-LnY-5" source="s42ONqCnvufCmdt6-LnY-7" target="s42ONqCnvufCmdt6-LnY-10" edge="1">
          <mxGeometry relative="1" as="geometry" />
        </mxCell>
        <mxCell id="s42ONqCnvufCmdt6-LnY-7" value="Model2" style="rounded=1;whiteSpace=wrap;html=1;" parent="s42ONqCnvufCmdt6-LnY-5" vertex="1">
          <mxGeometry x="160" y="120" width="80" height="40" as="geometry" />
        </mxCell>
        <mxCell id="s42ONqCnvufCmdt6-LnY-21" style="edgeStyle=orthogonalEdgeStyle;rounded=0;orthogonalLoop=1;jettySize=auto;html=1;exitX=0.5;exitY=1;exitDx=0;exitDy=0;entryX=1;entryY=0.5;entryDx=0;entryDy=0;" parent="s42ONqCnvufCmdt6-LnY-5" source="s42ONqCnvufCmdt6-LnY-8" target="s42ONqCnvufCmdt6-LnY-10" edge="1">
          <mxGeometry relative="1" as="geometry" />
        </mxCell>
        <mxCell id="s42ONqCnvufCmdt6-LnY-8" value="Model3" style="rounded=1;whiteSpace=wrap;html=1;" parent="s42ONqCnvufCmdt6-LnY-5" vertex="1">
          <mxGeometry x="280" y="120" width="80" height="40" as="geometry" />
        </mxCell>
        <mxCell id="s42ONqCnvufCmdt6-LnY-10" value="Fusion" style="rounded=1;whiteSpace=wrap;html=1;" parent="s42ONqCnvufCmdt6-LnY-5" vertex="1">
          <mxGeometry x="160" y="200" width="80" height="40" as="geometry" />
        </mxCell>
        <mxCell id="s42ONqCnvufCmdt6-LnY-2" value="Image" style="rounded=1;whiteSpace=wrap;html=1;" parent="s42ONqCnvufCmdt6-LnY-5" vertex="1">
          <mxGeometry x="40" y="40" width="80" height="40" as="geometry" />
        </mxCell>
        <mxCell id="s42ONqCnvufCmdt6-LnY-15" style="edgeStyle=orthogonalEdgeStyle;rounded=0;orthogonalLoop=1;jettySize=auto;html=1;exitX=0.5;exitY=1;exitDx=0;exitDy=0;entryX=0.5;entryY=0;entryDx=0;entryDy=0;" parent="s42ONqCnvufCmdt6-LnY-5" source="s42ONqCnvufCmdt6-LnY-2" target="s42ONqCnvufCmdt6-LnY-6" edge="1">
          <mxGeometry relative="1" as="geometry" />
        </mxCell>
        <mxCell id="s42ONqCnvufCmdt6-LnY-3" value="Text" style="rounded=1;whiteSpace=wrap;html=1;" parent="s42ONqCnvufCmdt6-LnY-5" vertex="1">
          <mxGeometry x="160" y="40" width="80" height="40" as="geometry" />
        </mxCell>
        <mxCell id="s42ONqCnvufCmdt6-LnY-16" style="edgeStyle=orthogonalEdgeStyle;rounded=0;orthogonalLoop=1;jettySize=auto;html=1;exitX=0.5;exitY=1;exitDx=0;exitDy=0;entryX=0.5;entryY=0;entryDx=0;entryDy=0;" parent="s42ONqCnvufCmdt6-LnY-5" source="s42ONqCnvufCmdt6-LnY-3" target="s42ONqCnvufCmdt6-LnY-7" edge="1">
          <mxGeometry relative="1" as="geometry" />
        </mxCell>
        <mxCell id="s42ONqCnvufCmdt6-LnY-4" value="Author" style="rounded=1;whiteSpace=wrap;html=1;" parent="s42ONqCnvufCmdt6-LnY-5" vertex="1">
          <mxGeometry x="280" y="40" width="80" height="40" as="geometry" />
        </mxCell>
        <mxCell id="s42ONqCnvufCmdt6-LnY-17" style="edgeStyle=orthogonalEdgeStyle;rounded=0;orthogonalLoop=1;jettySize=auto;html=1;exitX=0.5;exitY=1;exitDx=0;exitDy=0;entryX=0.5;entryY=0;entryDx=0;entryDy=0;" parent="s42ONqCnvufCmdt6-LnY-5" source="s42ONqCnvufCmdt6-LnY-4" target="s42ONqCnvufCmdt6-LnY-8" edge="1">
          <mxGeometry relative="1" as="geometry" />
        </mxCell>
        <mxCell id="s42ONqCnvufCmdt6-LnY-11" value="Harmful probability" style="rounded=1;whiteSpace=wrap;html=1;" parent="1" vertex="1">
          <mxGeometry x="200" y="480" width="80" height="40" as="geometry" />
        </mxCell>
        <mxCell id="s42ONqCnvufCmdt6-LnY-22" style="edgeStyle=orthogonalEdgeStyle;rounded=0;orthogonalLoop=1;jettySize=auto;html=1;exitX=0.5;exitY=1;exitDx=0;exitDy=0;" parent="1" source="s42ONqCnvufCmdt6-LnY-10" target="s42ONqCnvufCmdt6-LnY-11" edge="1">
          <mxGeometry relative="1" as="geometry" />
        </mxCell>
      </root>
    </mxGraphModel>
  </diagram>
</mxfile>
